<svg xmlns="http://www.w3.org/2000/svg" width="512" height="512" viewBox="0 0 512 512">
    <path fill="#FFF" d="M50 432h40c5.523 0 10-4.477 10-10v-40c0-5.523-4.477-10-10-10H50c-5.523 0-10 4.477-10 10v40c0 5.523 4.477 10 10 10zm10-40h20v20H60zm0 0M50 352h40c5.523 0 10-4.477 10-10v-40c0-5.523-4.477-10-10-10H50c-5.523 0-10 4.477-10 10v40c0 5.523 4.477 10 10 10zm10-40h20v20H60zm0 0M50 272h40c5.523 0 10-4.477 10-10v-40c0-5.523-4.477-10-10-10H50c-5.523 0-10 4.477-10 10v40c0 5.523 4.477 10 10 10zm10-40h20v20H60zm0 0M422 432h40c5.523 0 10-4.477 10-10v-40c0-5.523-4.477-10-10-10h-40c-5.523 0-10 4.477-10 10v40c0 5.523 4.477 10 10 10zm10-40h20v20h-20zm0 0M422 352h40c5.523 0 10-4.477 10-10v-40c0-5.523-4.477-10-10-10h-40c-5.523 0-10 4.477-10 10v40c0 5.523 4.477 10 10 10zm10-40h20v20h-20zm0 0M422 272h40c5.523 0 10-4.477 10-10v-40c0-5.523-4.477-10-10-10h-40c-5.523 0-10 4.477-10 10v40c0 5.523 4.477 10 10 10zm10-40h20v20h-20zm0 0M176 383h160c5.523 0 10-4.477 10-10v-40c0-5.523-4.477-10-10-10H176c-5.523 0-10 4.477-10 10v40c0 5.523 4.477 10 10 10zm150-20h-20v-20h20zm-40 0h-20v-20h20zm-40 0h-20v-20h20zm-60-20h20v20h-20zm0 0M176 303h160c5.523 0 10-4.477 10-10v-40c0-5.523-4.477-10-10-10H176c-5.523 0-10 4.477-10 10v40c0 5.523 4.477 10 10 10zm150-20h-20v-20h20zm-40 0h-20v-20h20zm-40 0h-20v-20h20zm-60-20h20v20h-20zm0 0M176 223h160c5.523 0 10-4.477 10-10v-40c0-5.523-4.477-10-10-10H176c-5.523 0-10 4.477-10 10v40c0 5.523 4.477 10 10 10zm150-20h-20v-20h20zm-40 0h-20v-20h20zm-40 0h-20v-20h20zm-60-20h20v20h-20zm0 0"/>
    <path fill="#FFF" d="M510.945 137.527l-40-80A10.003 10.003 0 0 0 462 52h-88.387L350.988 5.617A9.998 9.998 0 0 0 342 0H170a9.998 9.998 0 0 0-8.988 5.617L138.387 52H50c-3.79 0-7.25 2.14-8.945 5.527 0 0-39.996 80-40 80A10.104 10.104 0 0 0 0 142v360c0 5.523 4.477 10 10 10h492c5.523 0 10-4.477 10-10V142c0-2-.45-3.262-1.055-4.473zM120 492H20v-20h100zm0-40H20V192h100zm0-280H20v-20h100zm1.012-84.383A10.069 10.069 0 0 0 120 92v40H26.18l30-60h72.449zM155.762 62H217c5.512 0 10-4.488 10-10s-4.488-10-10-10h-51.484l10.73-22h159.508l10.73 22H297c-5.512 0-10 4.488-10 10s4.488 10 10 10h59.238l9.758 20H146.004zM186 492h-46v-20h46zm60 0h-40v-69h40zm60 0h-40v-69h40zm66 0h-46v-20h46zm0-40h-46v-39c0-5.523-4.477-10-10-10H196c-5.523 0-10 4.477-10 10v39h-46V142h232zm0-330H140v-20h232zm18.988-34.383L383.371 72h72.45l30 60H392V92c0-2-.473-3.281-1.012-4.383zM492 492H392v-20h100zm0-40H392V192h100zm0-280H392v-20h100zm0 0"/>
    <path fill="#FFF" d="M257 42c-5.512 0-10 4.488-10 10s4.488 10 10 10 10-4.488 10-10-4.488-10-10-10zm0 0"/>
</svg>
