<svg xmlns="http://www.w3.org/2000/svg" width="48" height="48">
    <path fill="#3F3F3F" fill-rule="evenodd" d="M41.942 22.181S43.739 6.349 30.639 2.583c0 0 9.83-7.706 15.832 3.53 0 0 5.591 10.185-4.529 16.068zm-24.245 17.8c-.389.492-.668.808-.668.808 1.514-1.897 1.935-3.96 1.432-4.865-.506-.908-2.944 1.484-2.944 1.484.587-.659 1.682-3.134 0-4.948-1.683-1.812-4.544 1.733-4.544 1.733s.421-3.465-1.009-5.197C8.534 27.265 4.16 30.81 4.16 30.81a32.335 32.335 0 0 1 1.535-1.875c3.781-4.584 13.832-16.517 21.672-23.533 0 0 4.669-.75 8.834 3.4-.023.016-12.882 9.48-18.582 16.942 0 0 16.03-13.078 20.317-14.849.834 1.209 1.613 2.676 2.284 4.459-.018.012-15.495 9.605-18.605 13.519 0 0 13.6-8.834 19.375-11.16.374 1.342.698 2.823.952 4.468 0 0-12.664 3.873-24.245 17.8zm-9.121-9.583c1.262.867 2.397 2.97 2.397 3.795 0 0 2.819-1.197 3.618-.207.799.989 1.219 2.763.926 3.422 0 0 1.891-.659 1.977 0 0 0 .798 1.278-.465 3.381 0 0-5.484-.06-9.901 2.493 0 0 2.956-5.814-3.741-3.334 0 0 1.321-4.478.773-9.138 0 0 3.155-1.277 4.416-.412zM7.128 43.282c-1.842 1.233-5.275 4.71-5.275 4.71-1.335-.77-1.854-1.307-1.854-1.307 1.735-1.746 3.388-6.737 3.388-6.737 3.208-.73 3.741 3.334 3.741 3.334z"/>
</svg>
