<svg xmlns="http://www.w3.org/2000/svg" width="44" height="49">
    <path fill="#DD2854" fill-rule="evenodd" d="M38.671 27.746s1.618-26.222.484-27.395C37.54-1.322.714 3.348.068 4.667c-.645 1.319 6.461 26.705 6.461 26.705L3.137 44.891s1.615 3.132 2.908 3.132c1.291 0 36.017-2.803 36.987-3.628.968-.824.587-2.758.808-3.79.219-1.035-5.169-12.859-5.169-12.859zM3.842 7.14c.808-.99 31.914-4.45 32.56-3.627.646.824-.316 19.752-.638 20.673-.323.922-26.167 3.726-27.297 3.064-1.131-.659-5.432-19.121-4.625-20.11zm32.779 20.21S23.65 32.362 9.275 29.889l27.346-2.539zM29.31 41.049c-.443.385-10.853 1.076-11.075.758-.1-.144.045-.937.288-1.774.034-.114.069-.23.105-.344l.017-.05c.033-.103.068-.205.103-.307l.027-.073c.032-.091.065-.179.099-.264l.036-.091a12.35 12.35 0 0 1 .136-.316c.03-.064.06-.123.089-.18l.048-.093c.028-.051.056-.096.085-.14.016-.025.032-.053.048-.075a.915.915 0 0 1 .087-.106c.014-.016.027-.035.041-.048a.362.362 0 0 1 .121-.079c.591-.191 7.604-1.143 8.078-.821a.68.68 0 0 1 .102.094c.024.028.051.064.078.1a.951.951 0 0 1 .046.055c.016.024.034.052.052.076.263.379.61 1.015.901 1.658.412.91.709 1.828.488 2.02zm10.208-2.259c-.33.224-4.124.793-9.017 1.406a18.114 18.114 0 0 0-.442-1.303c3.871-.438 6.81-.833 7.076-.989.822-.481-2.051-5.295-2.807-5.589-.614-.239-22.65 1.348-22.921 2.146-.271.795-2.72 5.258-2.031 5.971.237.243 3.478.079 7.664-.261a21.884 21.884 0 0 0-.333 1.536c-5.329.492-9.563.739-9.855.381-.807-.989 2.1-7.144 2.423-8.243.323-1.099 26.252-3.137 26.973-2.803.889.412 4.239 7.089 3.27 7.748z"/>
</svg>
