<svg xmlns="http://www.w3.org/2000/svg" width="40" height="48">
    <path fill="#3F3F3F" fill-rule="evenodd" d="M39.587 3.529C21.536-5.217 1.498 4.831.234 6.321-1.03 7.808 3.123 38.513 4.206 40.002c1.083 1.489 13.177 8.374 14.982 8.002 1.806-.372 15.345-5.955 16.066-7.63.722-1.674 6.3-35.893 4.333-36.845zm-8.112 10.992c-1.264.743-18.524.91-18.908 1.512-.385.604-.068 2.512.315 2.768.384.254 17.827.373 18.593 1.116.766.742-1.443 15.097-1.985 15.631-.543.533-10.019 6.375-11.013 6.327-.993-.048-10.378-7.419-10.65-8.188-.27-.77-.405-3.977 0-4.466.407-.49 5.146-.765 5.596 0 .451.767-.044 3.072.542 3.35.586.277 9.703.28 10.11-.186.405-.467.812-7.558.359-8.282-.452-.722-15.59.514-16.245 0-.656-.513-2.346-10.885-1.264-12.374 1.083-1.489 24.731-6.513 25.994-5.397 1.264 1.117-.18 7.444-1.444 8.189z"/>
</svg>
