<svg xmlns="http://www.w3.org/2000/svg" width="48" height="40">
    <path fill="#3F3F3F" fill-rule="evenodd" d="M.195 10.48C1.274 9.221 38.546-1.755 47.187.224c.494.113.737 5.95.795 12.992L.475 18.604c-.457-4.323-.645-7.7-.28-8.124zm39.029.954c1.695.636 3.748-.664 4.587-2.901.839-2.236.147-4.564-1.548-5.199-1.693-.635-3.746.663-4.586 2.9-.839 2.238-.146 4.565 1.547 5.2zm-8.966.804c1.475.554 3.263-.577 3.995-2.525.73-1.948.128-3.975-1.349-4.529-1.475-.552-3.261.578-3.992 2.527-.733 1.948-.129 3.975 1.346 4.527zm-7.873.965c1.304.488 2.884-.511 3.53-2.234.646-1.721.113-3.512-1.191-4.002-1.303-.487-2.883.512-3.529 2.234-.646 1.721-.113 3.513 1.19 4.002zm24.802 24.628c-.9.9-41.771 2.699-43.032 1.979-.795-.454-2.598-11.531-3.544-19.95l47.383-3.828c.015 10.063-.312 21.304-.807 21.799zM10.951 23.4l-1.17-1.979-5.942 4.498.63 2.159 6.482 2.159.36-2.248-5.13-1.53 4.77-3.059zm5.312-1.979l-2.431 8.367 2.071.449 2.654-8.385-2.294-.431z"/>
</svg>
