<svg xmlns="http://www.w3.org/2000/svg" width="38" height="49">
    <path fill="#3F3F3F" fill-rule="evenodd" d="M37.564 36.506l-6.042.248-2.281-1.426c5.765-4.785 7.758-12.684 4.348-19.032-3.943-7.342-13.614-9.826-21.6-5.551C4.005 15.019.728 24.436 4.672 31.778c3.943 7.341 13.613 9.827 21.598 5.551.027-.014.052-.03.079-.045l2.501 3.786 8.568 1.334c-.125 2.946-.323 4.884-.598 5.14-1.357 1.27-33.741 1.523-35.097.848-1.357-.678-1.44-42.403 0-44.18 1.44-1.777 32.216-4.655 34.08-2.539 1.273 1.445 1.915 21.717 1.761 34.833zm-12.088-.543c-.038.02-.073.042-.111.063-6.973 3.732-15.415 1.563-18.858-4.848-3.445-6.409-.584-14.631 6.389-18.365 6.973-3.732 15.415-1.563 18.859 4.848 3.011 5.604 1.201 12.596-3.965 16.761l-5.679-3.55 3.365 5.091zm-1.575-12.924c-.517-2.469-3.073-4.027-5.708-3.475-2.636.55-4.351 2.998-3.833 5.469.517 2.471 3.073 4.027 5.709 3.477 2.635-.55 4.351-3 3.832-5.471zm-.646 8.849l7.885 5.84h6.446l-.152 3.199-8.075-.746-6.104-8.293z"/>
</svg>
