<svg xmlns="http://www.w3.org/2000/svg" width="40" height="49">
    <path fill="#3F3F3F" fill-rule="evenodd" d="M39.615 26.607c-.25.514-1.042.985-1.769 1.325a10.24 10.24 0 0 1-.427 1.504c-.236.598-.721 1.14-1.337 1.61 1.191 2.935 2.298 5.951 2.122 6.673-.557 2.292-2.837 4.028-5.768 5.567.162.609.216 1.139.09 1.454-.468 1.162-7.417 4.585-8.962 4.264-1.546-.318-3.328-4.798-2.905-5.651.424-.853 8.265-4.69 9.325-4.264.279.112.622.484.965.982 1.78-1.042 3.396-2.174 3.676-2.858.207-.509-.341-2.589-1.053-4.843-1.507.551-3.043.781-3.836.567-3.991-1.064-6.028-9.851-5.587-12.551.422-2.598 2.016-4.682 3.958-5.997-1.188-2.787-3.92-9-4.858-9.442-2.891-1.374-17.107 3.308-18.657 8.282-.835 2.677.573 7.004 1.296 8.925 1.805-.981 3.814-1.396 5.688-.856 5.288 1.518 7.584 15.175 6.984 16.944-.598 1.769-4.39 4.321-7.183 4.45-.663.029-1.624-.312-2.708-.919 2.06-1.008 4.513-2.971 5.178-4.123.953-1.651-2.689-10.334-4.97-11.272-1.954-.803-6.846 3.755-8.296 6.502A6.885 6.885 0 0 1 .2 31.064c-.124-2.216.924-4.542 2.562-6.395-.923-2.265-3.4-8.798-2.571-11.829C2.146 5.697 19.212-2.027 25.546 2.196c.995.664 3.602 7.842 4.74 11.085 1.602-.554 3.237-.605 4.539-.012 1.477.673 2.397 2.192 2.932 4.053.751.247 1.598.616 1.858 1.078.498.885.498 7.175 0 8.207zm-32.02 2.619c1.671.687 4.341 7.052 3.643 8.261-.698 1.209-4.074 3.634-5.456 3.487-1.382-.151-4.677-4.446-4.576-6.105.1-1.659 4.718-6.331 6.389-5.643z"/>
</svg>
