<svg xmlns="http://www.w3.org/2000/svg" width="512" height="512" viewBox="0 0 512 512">
    <path fill="#FFF" d="M495.698 452.12h-7.995V194.609c0-.25-.013-.499-.037-.748-.01-.101-.029-.199-.043-.298-.02-.143-.037-.286-.065-.427-.023-.118-.056-.233-.085-.35-.03-.121-.057-.242-.093-.362-.035-.115-.078-.227-.119-.339-.042-.118-.081-.237-.129-.353-.044-.106-.096-.208-.144-.311-.056-.118-.108-.238-.17-.354-.053-.098-.113-.192-.17-.287-.068-.115-.133-.231-.208-.342-.07-.104-.148-.202-.222-.302-.071-.095-.137-.193-.214-.286a7.714 7.714 0 0 0-.462-.511l-.034-.038-62.649-62.649a16.442 16.442 0 0 0-11.703-4.848h-68.743V87.856a7.48 7.48 0 0 0-2.229-6.018l-78.94-77.163a7.5 7.5 0 0 0-10.485 0l-78.941 77.163a7.486 7.486 0 0 0-2.228 6.021v33.945h-68.744c-4.42 0-8.577 1.722-11.703 4.848L26.496 189.3a7.64 7.64 0 0 0-.498.551c-.07.086-.132.176-.198.264-.081.107-.164.213-.239.324-.072.107-.134.219-.2.329-.06.1-.122.197-.177.3-.061.113-.112.23-.166.346-.05.106-.103.21-.148.319-.047.113-.085.229-.126.344-.042.116-.086.23-.122.349-.035.116-.061.234-.09.351-.03.12-.064.238-.088.36-.027.136-.043.274-.063.411-.015.105-.035.208-.045.315a7.69 7.69 0 0 0-.037.744V452.12h-7.995C7.313 452.12 0 459.433 0 468.422v24.737c0 8.989 7.313 16.302 16.302 16.302h479.396c8.989 0 16.302-7.313 16.302-16.302v-24.737c0-8.989-7.312-16.302-16.302-16.302zM342.411 136.804h68.743c.414 0 .804.161 1.096.454l49.846 49.846H342.411v-50.3zM256 20.526l60.539 59.175H195.461L256 20.526zm-71.412 74.175h142.823V256c0 4.142 3.357 7.5 7.5 7.5s7.5-3.358 7.5-7.5v-53.896h130.292V452.12H342.411V284c0-4.142-3.357-7.5-7.5-7.5s-7.5 3.358-7.5 7.5v168.12H302.5v-84.312c0-25.64-20.859-46.5-46.5-46.5-25.64 0-46.5 20.859-46.5 46.5v84.312h-24.912V94.701zM287.5 367.808v84.312h-63v-84.312c0-17.369 14.131-31.5 31.5-31.5 17.369.001 31.5 14.132 31.5 31.5zM99.749 137.258a1.54 1.54 0 0 1 1.096-.454h68.744v50.3H49.904l49.845-49.846zM497 493.16c0 .718-.584 1.302-1.302 1.302H16.302A1.303 1.303 0 0 1 15 493.16v-24.737c0-.718.584-1.302 1.302-1.302h73.61a7.5 7.5 0 0 0 0-15H39.297V202.103h130.292V452.12h-51.146a7.5 7.5 0 0 0 0 15h377.255c.718 0 1.302.584 1.302 1.302v24.738z"/>
    <path fill="#FFF" d="M387.158 218.284h-18.693c-8.275 0-15.009 6.733-15.009 15.009V393.35c0 8.276 6.733 15.009 15.009 15.009h18.693c8.275 0 15.009-6.733 15.009-15.009V233.293c0-8.276-6.733-15.009-15.009-15.009zm0 175.074l-18.702-.009.009-160.065 18.702.009.002 160.065h-.011zM446.649 218.284h-18.693c-8.276 0-15.01 6.733-15.01 15.009V393.35c0 8.276 6.734 15.009 15.01 15.009h18.693c8.275 0 15.009-6.733 15.009-15.009V233.293c0-8.276-6.733-15.009-15.009-15.009zm0 175.074l-18.703-.009.01-160.065 18.702.009.002 160.065h-.011zM84.044 218.284H65.351c-8.276 0-15.009 6.733-15.009 15.009V393.35c0 8.276 6.733 15.009 15.009 15.009h18.694c8.276 0 15.009-6.733 15.009-15.009V233.293c-.001-8.276-6.734-15.009-15.01-15.009zm0 175.075l-18.703-.009.009-160.066 18.703.009.002 160.065-.011.001zM143.535 218.284h-18.694c-8.276 0-15.009 6.733-15.009 15.009V393.35c.001 8.276 6.733 15.009 15.009 15.009h18.694c8.276 0 15.009-6.733 15.009-15.009V233.293c0-8.276-6.733-15.009-15.009-15.009zm-.001 175.074l-18.703-.009.01-160.065 18.703.009.001 160.065h-.011zM256 114.828c-28.781 0-52.196 23.415-52.196 52.196S227.219 219.22 256 219.22s52.196-23.415 52.196-52.196-23.415-52.196-52.196-52.196zm0 89.392c-20.51 0-37.196-16.686-37.196-37.196S235.49 129.828 256 129.828s37.196 16.686 37.196 37.196S276.509 204.22 256 204.22z"/>
    <path fill="#FFF" d="M255.999 134.571a7.5 7.5 0 0 0-7.5 7.5v21.846l-12.312 12.312a7.5 7.5 0 0 0 0 10.606c1.465 1.466 3.385 2.198 5.304 2.198s3.839-.732 5.303-2.197l14.509-14.509a7.5 7.5 0 0 0 2.196-5.303v-24.953a7.5 7.5 0 0 0-7.5-7.5z"/>
</svg>
