<svg xmlns="http://www.w3.org/2000/svg" width="512" height="512" viewBox="0 0 512 512">
    <path fill="#FFF" d="M204.8 332.799h-34.133a8.53 8.53 0 0 0-8.533 8.533v68.267a8.53 8.53 0 0 0 8.533 8.533H204.8a8.53 8.53 0 0 0 8.533-8.533v-68.267a8.531 8.531 0 0 0-8.533-8.533zm-8.533 68.267H179.2v-51.2h17.067v51.2zM341.333 332.799H307.2a8.525 8.525 0 0 0-8.533 8.533v68.267a8.525 8.525 0 0 0 8.533 8.533h34.133a8.525 8.525 0 0 0 8.533-8.533v-68.267a8.525 8.525 0 0 0-8.533-8.533zm-8.533 68.267h-17.067v-51.2H332.8v51.2z"/>
    <path fill="#FFF" d="M204.8 366.933h102.4V384H204.8zM204.8 332.799h102.4v17.067H204.8z"/>
    <path fill="#FFF" d="M345.719 146.286l-85.333-51.2a8.515 8.515 0 0 0-8.781 0l-85.333 51.2a8.52 8.52 0 0 0-4.139 7.313v187.733a8.53 8.53 0 0 0 8.533 8.533h170.667a8.525 8.525 0 0 0 8.533-8.533V153.599a8.526 8.526 0 0 0-4.147-7.313zM332.8 332.799H179.2V158.438l76.8-46.08 76.8 46.08v174.361z"/>
    <path fill="#FFF" d="M256 204.799c-32.939 0-59.733 26.795-59.733 59.733v76.8a8.53 8.53 0 0 0 8.533 8.533h102.4a8.525 8.525 0 0 0 8.533-8.533v-76.8c0-32.938-26.803-59.733-59.733-59.733zm42.667 128h-85.333v-68.267c0-23.526 19.14-42.667 42.667-42.667 23.526 0 42.667 19.14 42.667 42.667v68.267zM204.8 401.066h102.4v17.067H204.8z"/>
    <path fill="#FFF" d="M273.067 273.066h-34.133a8.53 8.53 0 0 0-8.533 8.533v59.733a8.53 8.53 0 0 0 8.533 8.533h34.133a8.525 8.525 0 0 0 8.533-8.533v-59.733a8.525 8.525 0 0 0-8.533-8.533zm-8.534 59.733h-17.067v-42.667h17.067v42.667zM256 136.533c-14.114 0-25.6 11.486-25.6 25.6s11.486 25.6 25.6 25.6 25.6-11.486 25.6-25.6-11.486-25.6-25.6-25.6zm0 34.133c-4.702 0-8.533-3.831-8.533-8.533s3.831-8.533 8.533-8.533c4.71 0 8.533 3.831 8.533 8.533s-3.823 8.533-8.533 8.533zM170.667 179.199h-153.6a8.536 8.536 0 0 0-8.533 8.533v221.867a8.53 8.53 0 0 0 8.533 8.533h153.6a8.53 8.53 0 0 0 8.533-8.533V187.733c0-4.711-3.823-8.534-8.533-8.534zm-8.534 221.867H25.6v-204.8h136.533v204.8z"/>
    <path fill="#FFF" d="M204.8 273.066h102.4v17.067H204.8zM204.8 238.933h102.4V256H204.8zM128 358.399h17.067v25.6H128zM85.333 358.399H102.4v25.6H85.333zM42.667 358.399h17.067v25.6H42.667zM128 307.199h17.067v25.6H128zM85.333 307.199H102.4v25.6H85.333zM42.667 307.199h17.067v25.6H42.667zM128 255.999h17.067v25.6H128zM85.333 255.999H102.4v25.6H85.333zM42.667 255.999h17.067v25.6H42.667zM0 213.333h170.667V230.4H0zM494.933 179.199h-153.6a8.53 8.53 0 0 0-8.533 8.533v221.867a8.525 8.525 0 0 0 8.533 8.533h153.6a8.525 8.525 0 0 0 8.533-8.533V187.733a8.53 8.53 0 0 0-8.533-8.534zM486.4 401.066H349.867v-204.8H486.4v204.8z"/>
    <path fill="#FFF" d="M366.933 358.399H384v25.6h-17.067zM409.6 358.399h17.067v25.6H409.6zM452.267 358.399h17.067v25.6h-17.067zM366.933 307.199H384v25.6h-17.067zM409.6 307.199h17.067v25.6H409.6zM452.267 307.199h17.067v25.6h-17.067zM366.933 255.999H384v25.6h-17.067zM409.6 255.999h17.067v25.6H409.6zM452.267 255.999h17.067v25.6h-17.067zM341.333 213.333H512V230.4H341.333zM0 179.199h170.667v17.067H0zM341.333 179.199H512v17.067H341.333zM0 401.066h512v17.067H0z"/>
</svg>
