<?xml version="1.0" encoding="utf-8"?>
<!-- Generator: Adobe Illustrator 21.1.0, SVG Export Plug-In . SVG Version: 6.00 Build 0)  -->
<svg version="1.1" id="Layer_1" xmlns="http://www.w3.org/2000/svg" xmlns:xlink="http://www.w3.org/1999/xlink" x="0px" y="0px"
	 viewBox="0 0 289 316.3" style="enable-background:new 0 0 289 316.3;" xml:space="preserve">
<style type="text/css">
	.st0{fill:none;}
	.st1{font-family:'DancingintheRainbow';}
	.st2{font-size:102px;}
</style>
<title>unibook ver.1</title>
<desc>Created with Sketch.</desc>
<g id="lastest">
	<g id="logo-ver.4-pink" transform="translate(-336.000000, -339.000000)">
		<g id="unibook-ver.1" transform="translate(290.000000, 265.000000)">
			<g id="open-book" transform="translate(46.000000, 74.000000)">
				<g id="Group">
					<path id="Combined-Shape" d="M125.4,58.1C125.4,58.1,125.4,58.1,125.4,58.1c-0.8,0-1.6,0.3-2.1,0.9c-0.6,0.6-0.9,1.3-0.9,2.1
						v44.7c0,1.6,1.4,3,3,3c4.2,0,10,0.5,15.8,2.7c3.9,1.5,7.8,3.8,11.1,7.2V71.9c0-0.6-0.1-1.1-0.4-1.5
						C145.2,59.8,132.4,58.2,125.4,58.1z"/>
					<path id="Combined-Shape_1_" d="M177.3,109.3c2.4-0.3,4.6-0.4,6.5-0.4c1.7,0,3-1.3,3-3V61.1c0-0.8-0.3-1.6-0.9-2.1
						c-0.6-0.6-1.3-0.9-2.1-0.9c0,0,0,0,0,0c-7,0-19.9,1.6-26.5,12.2c-0.3,0.4-0.4,1-0.4,1.5v43.3c-1.5,11.8-9.9,20.3-22.8,20.3
						c-14.2,0-22.8-10.8-22.8-24.6V60.4c0-1.2-1-2.3-2.3-2.3h-4.6c-1.2,0-2.3,1.1-2.3,2.3v51.2c0,18.4,13,32.5,32,32.5
						c17.5,0,29.9-11.7,31.9-27.8c0-0.4,0.4-1.7,0.4-1.9c0-0.2,0.2-1.4,1.9-2.6c0.7-0.5,1.6-1,2.5-1.3c1.6-0.5,3.1-0.8,4.6-1.1
						C176.2,109.5,176.8,109.4,177.3,109.3z"/>
				</g>
			</g>
		</g>
	</g>
</g>
<rect x="-201" y="186.1" class="st0" width="663" height="215"/>
<text transform="matrix(1 0 0 1 47.7793 244.4749)" class="st1 st2">Web</text>
<title>unibook ver.1</title>
<desc>Created with Sketch.</desc>
<g id="lastest_1_">
	<g id="logo-ver.4-pink_1_" transform="translate(-336.000000, -339.000000)">
		<g id="unibook-ver.1_1_" transform="translate(290.000000, 265.000000)">
			<g id="open-book_1_" transform="translate(46.000000, 74.000000)">
				<g id="Group_1_">
					<path id="Combined-Shape_3_" d="M503.4,58.1C503.4,58.1,503.4,58.1,503.4,58.1c-0.8,0-1.6,0.3-2.1,0.9
						c-0.6,0.6-0.9,1.3-0.9,2.1v44.7c0,1.6,1.4,3,3,3c4.2,0,10,0.5,15.8,2.7c3.9,1.5,7.8,3.8,11.1,7.2V71.9c0-0.6-0.1-1.1-0.4-1.5
						C523.2,59.8,510.4,58.2,503.4,58.1z"/>
					<path id="Combined-Shape_2_" d="M555.3,109.3c2.4-0.3,4.6-0.4,6.5-0.4c1.7,0,3-1.3,3-3V61.1c0-0.8-0.3-1.6-0.9-2.1
						c-0.6-0.6-1.3-0.9-2.1-0.9c0,0,0,0,0,0c-7,0-19.9,1.6-26.5,12.2c-0.3,0.4-0.4,1-0.4,1.5v43.3c-1.5,11.8-9.9,20.3-22.8,20.3
						c-14.2,0-22.8-10.8-22.8-24.6V60.4c0-1.2-1-2.3-2.3-2.3h-4.6c-1.2,0-2.3,1.1-2.3,2.3v51.2c0,18.4,13,32.5,32,32.5
						c17.5,0,29.9-11.7,31.9-27.8c0-0.4,0.4-1.7,0.4-1.9c0-0.2,0.2-1.4,1.9-2.6c0.7-0.5,1.6-1,2.5-1.3c1.6-0.5,3.1-0.8,4.6-1.1
						C554.2,109.5,554.8,109.4,555.3,109.3z"/>
				</g>
			</g>
		</g>
	</g>
</g>
<rect x="378" y="186.1" class="st0" width="289" height="215"/>
<text transform="matrix(1 0 0 1 417.8496 244.4749)" class="st1 st2">Mobile</text>
<desc>Created with Sketch.</desc>
</svg>
