<?xml version="1.0" encoding="utf-8"?>
<!-- Generator: Adobe Illustrator 21.1.0, SVG Export Plug-In . SVG Version: 6.00 Build 0)  -->
<svg version="1.1" baseProfile="basic" id="Layer_1"
	 xmlns="http://www.w3.org/2000/svg" xmlns:xlink="http://www.w3.org/1999/xlink" x="0px" y="0px" viewBox="0 0 289 316.3"
	 xml:space="preserve">
<g id="lastest">
	<g id="logo-ver.4-pink" transform="translate(-336.000000, -339.000000)">
		<g id="unibook-ver.1" transform="translate(290.000000, 265.000000)">
			<g id="open-book" transform="translate(46.000000, 74.000000)">
				<g id="Group">
					<path id="Combined-Shape" d="M125.4,58.1C125.4,58.1,125.4,58.1,125.4,58.1c-0.8,0-1.6,0.3-2.1,0.9c-0.6,0.6-0.9,1.3-0.9,2.1
						v44.7c0,1.6,1.4,3,3,3c4.2,0,10,0.5,15.8,2.7c3.9,1.5,7.8,3.8,11.1,7.2V71.9c0-0.6-0.1-1.1-0.4-1.5
						C145.2,59.8,132.4,58.2,125.4,58.1z"/>
					<path id="Combined-Shape_1_" d="M177.3,109.3c2.4-0.3,4.6-0.4,6.5-0.4c1.7,0,3-1.3,3-3V61.1c0-0.8-0.3-1.6-0.9-2.1
						c-0.6-0.6-1.3-0.9-2.1-0.9c0,0,0,0,0,0c-7,0-19.9,1.6-26.5,12.2c-0.3,0.4-0.4,1-0.4,1.5v43.3c-1.5,11.8-9.9,20.3-22.8,20.3
						c-14.2,0-22.8-10.8-22.8-24.6V60.4c0-1.2-1-2.3-2.3-2.3h-4.6c-1.2,0-2.3,1.1-2.3,2.3v51.2c0,18.4,13,32.5,32,32.5
						c17.5,0,29.9-11.7,31.9-27.8c0-0.4,0.4-1.7,0.4-1.9c0-0.2,0.2-1.4,1.9-2.6c0.7-0.5,1.6-1,2.5-1.3c1.6-0.5,3.1-0.8,4.6-1.1
						C176.2,109.5,176.8,109.4,177.3,109.3z"/>
				</g>
			</g>
		</g>
	</g>
</g>
<g>
	<path d="M175.7,184.7c-2.2,8.4-40,62.6-52,62.6c-5.1,0-9.6-4.7-9.6-12.9c0-8,5.5-18.8,14.3-36.7c-9.8,15.5-28.8,49-38.1,49
		c-5.1,0-10-5.1-10-13.3c0-3.5,0.8-6.7,2.2-9.8c5.5-12,18.6-39.4,19.6-44.9c0-1.6-0.6-3.5-2-3.7c-11.2-2.4-51.8,19-46.9,31.8
		c0.8,2.2,3.1,3.5,4.9,5.7c-6.7-1.4-10.2-6.3-10.2-11.2c0-23.5,47.7-29,49.6-29c7.5,0,10.6,4.1,10.6,9.6c0,3.5-1,7.5-2.4,10.6
		c-2.4,4.7-20.6,40.2-20.6,44.7c0,3.3,2,6.1,5.1,6.1c9,0,30-40.2,44.1-58.1c4.3-5.5,8.8-3.9,9.8,2c-2.2,0-4.5,1.2-6.1,4.7
		c-4.9,9.4-18.2,38.4-18.2,46.5c0,3.1,0.6,6.5,3.3,6.5c6.3,0,23.9-24.9,36.3-44.3c7.1-10.8,10.4-18,10.4-22.2
		c0-5.7-11.8-5.9-4.3-5.9C173.2,172.7,177.9,175.1,175.7,184.7z"/>
	<path d="M158.3,230.8c0-10.4,11.2-22,21-22.6c2.7-0.2,5.3,1,5.3,4.1c0,1.8-0.8,3.7-2.4,5.5c-1,1.4-7.1,7.5-17.3,9.2
		c-1,1.8-1.2,3.1-1.2,4.5c0,2.2,1.4,3.7,4.1,3.9c8,0.6,18.4-12.2,20.6-18.4c-1,9.8-13.1,20.8-23.5,20.8
		C159.8,237.7,158.3,234.7,158.3,230.8z M165.9,225.7c11.2-3.9,16.5-9.8,16.5-13.3c0-0.6-0.2-1-0.6-1c-3.3,0-9,5.3-14.1,11.6
		C167.1,223.7,166.9,224.1,165.9,225.7z"/>
	<path d="M201.8,209c0.6-0.6,1-0.4,1.6-0.6c3.9-0.8,5.9,1.4,6.5,4.5c1,9.4-9.2,25.7-20.2,24.7c-2.9,0-9.6-1.6-7.3-10.4
		c1.6-6.5,12.2-27.5,23.1-37.9c3.3-3.3,6.1-3.3,7.5-2.2C216.3,188.6,211.6,199.2,201.8,209z M190,222.4l-0.2,0.2
		c-1.6,3.7-8,12.9-1.8,12.9c1.8,0,5.1-1.4,7.5-3.7c7.3-6.7,12.2-20.6,7.5-21.6C200,209.6,194.9,215.9,190,222.4z M210.4,194.5
		c1-1.8,1-2.7-0.4-1.6c-5.1,6.3-11.2,14.3-15.9,21.8c2.2-2.2,4.5-4.5,5.5-5.9C205.3,202.9,207.7,199.4,210.4,194.5z"/>
</g>
</svg>
