<svg xmlns="http://www.w3.org/2000/svg" width="663" height="134" viewBox="0 0 663 134">
    <g fill="#FFF" fill-rule="evenodd">
        <path fill-rule="nonzero" d="M35.625 2h-.01a4.6 4.6 0 0 0-3.25 1.33A4.534 4.534 0 0 0 31 6.58v68.694c0 2.519 2.083 4.573 4.643 4.58 6.41.015 15.392.805 24.243 4.145C65.939 86.284 71.932 89.76 77 95V23.11c0-.854-.22-1.656-.638-2.32C66.122 4.5 46.444 2.025 35.625 2z"/>
        <path fill-rule="nonzero" d="M115.404 80.505a78.523 78.523 0 0 1 9.953-.65c2.56-.007 4.643-2.061 4.643-4.58V6.581c0-1.23-.485-2.384-1.365-3.251A4.6 4.6 0 0 0 125.386 2h-.011c-10.819.025-30.497 2.5-40.738 18.79-.417.664-.637 1.467-.637 2.32v66.475c-2.356 18.083-15.174 31.197-34.926 31.197-21.749 0-34.947-16.544-34.947-37.735V5.532C14.127 3.673 12.64 2 10.596 2H3.532C1.673 2 0 3.673 0 5.532v78.63c0 28.255 19.89 49.818 49.074 49.818 26.832 0 45.907-17.997 49.003-42.652.07-.55.596-2.552.667-2.874.072-.322.313-2.083 2.867-3.936 1.14-.826 2.45-1.458 3.817-1.952a65.328 65.328 0 0 1 7.081-1.622c1.115-.166 2.11-.298 2.895-.439z"/>
        <path d="M358.56 76.91V4.09c0-1.1.88-2.09 2.09-2.09h25.19c13.09 0 23.21 8.8 23.21 20.35 0 8.47-6.93 15.07-12.1 17.49 5.83 1.87 14.3 7.81 14.3 17.93 0 12.32-10.56 21.23-23.98 21.23h-26.62c-1.21 0-2.09-.99-2.09-2.09zm14.19-42.57h11.77c5.61 0 9.46-4.4 9.46-9.9s-3.85-9.35-9.46-9.35h-11.77v19.25zm0 31.68h13.31c5.5 0 9.9-4.29 9.9-10.01 0-5.5-5.5-9.57-11.22-9.57h-11.99v19.58zm48.18-25.41c0-22 17.49-39.71 39.49-39.71 22 0 39.6 17.71 39.6 39.71s-17.6 39.49-39.6 39.49-39.49-17.49-39.49-39.49zm14.3 0c0 13.86 11.33 25.19 25.19 25.19 13.86 0 25.3-11.33 25.3-25.19 0-13.86-11.44-25.41-25.3-25.41-13.86 0-25.19 11.55-25.19 25.41zm73.7 0c0-22 17.49-39.71 39.49-39.71 22 0 39.6 17.71 39.6 39.71s-17.6 39.49-39.6 39.49-39.49-17.49-39.49-39.49zm14.3 0c0 13.86 11.33 25.19 25.19 25.19 13.86 0 25.3-11.33 25.3-25.19 0-13.86-11.44-25.41-25.3-25.41-13.86 0-25.19 11.55-25.19 25.41zm79.2 35.75c0 1.43 1.1 2.64 2.64 2.64h9.68c1.43 0 2.64-1.21 2.64-2.64V42.81l28.71 35.42c.22.33.88.77 1.98.77h11.99c2.2 0 3.08-2.42 1.98-3.85l-30.8-36.85 28.71-32.34c1.43-1.65.33-3.96-1.76-3.96h-11c-.99 0-1.65.55-2.09 1.1l-27.72 31.24V4.64c0-1.43-1.21-2.64-2.64-2.64h-9.68c-1.54 0-2.64 1.21-2.64 2.64v71.72zM158.91 49.85c0 16.72 13.31 30.25 30.58 30.25 17.38 0 30.69-13.53 30.69-30.25V4.09c0-1.1-.99-2.09-2.09-2.09h-10.45c-1.21 0-2.09.99-2.09 2.09v45.1c0 9.24-6.49 16.61-16.06 16.61-9.57 0-15.95-7.37-15.95-16.72V4.09c0-1.1-.88-2.09-2.09-2.09H161c-1.1 0-2.09.99-2.09 2.09v45.76zm80.19 27.06c0 1.1.99 2.09 2.09 2.09h10.01c1.21 0 2.09-.99 2.09-2.09v-47.3h.11l45.98 50.49h2.64c1.1 0 2.09-.88 2.09-1.98V4.09c0-1.1-.99-2.09-2.09-2.09H291.9c-1.21 0-2.09.99-2.09 2.09v45.43h-.11L243.94.9h-2.75c-1.1 0-2.09.88-2.09 1.98v74.03zm85.03 0c0 1.1.99 2.09 2.09 2.09h10.23c1.1 0 2.09-.99 2.09-2.09V4.09c0-1.1-.99-2.09-2.09-2.09h-10.23c-1.1 0-2.09.99-2.09 2.09v72.82zM158.584 107.436c0-7.2 5.724-12.996 12.924-12.996 7.2 0 12.96 5.796 12.96 12.996s-5.76 12.924-12.96 12.924c-7.2 0-12.924-5.724-12.924-12.924zm4.68 0c0 4.536 3.708 8.244 8.244 8.244s8.28-3.708 8.28-8.244-3.744-8.316-8.28-8.316-8.244 3.78-8.244 8.316zm24.365 11.88c0 .36.324.684.684.684h3.276a.684.684 0 0 0 .684-.684v-15.48h.072l14.76 16.272c.18.18.36.252.612.252h.504c.36 0 .684-.288.684-.648V95.484a.708.708 0 0 0-.684-.684h-3.312a.684.684 0 0 0-.684.684v14.868h-.072l-14.688-15.66a.79.79 0 0 0-.612-.252h-.54c-.36 0-.684.288-.684.648v24.228zm25.913 0c0 .36.288.684.684.684h13.176a.684.684 0 0 0 .684-.684v-2.952a.684.684 0 0 0-.684-.684h-9.18V95.484a.708.708 0 0 0-.684-.684h-3.312a.684.684 0 0 0-.684.684v23.832zm16.696 0c0 .36.324.684.684.684h3.348c.36 0 .684-.324.684-.684V95.484a.708.708 0 0 0-.684-.684h-3.348a.708.708 0 0 0-.684.684v23.832zm9.353 0c0 .36.324.684.684.684h3.276a.684.684 0 0 0 .684-.684v-15.48h.072l14.76 16.272c.18.18.36.252.612.252h.504c.36 0 .684-.288.684-.648V95.484a.708.708 0 0 0-.684-.684h-3.312a.684.684 0 0 0-.684.684v14.868h-.072l-14.688-15.66a.79.79 0 0 0-.612-.252h-.54c-.36 0-.684.288-.684.648v24.228zm25.913 0c0 .36.288.684.684.684h14.652a.684.684 0 0 0 .684-.684v-2.952a.684.684 0 0 0-.684-.684h-10.656v-6.3h8.892c.36 0 .684-.288.684-.684v-2.988a.708.708 0 0 0-.684-.684h-8.892V99.12h10.656a.684.684 0 0 0 .684-.684v-2.952a.684.684 0 0 0-.684-.684h-14.652a.684.684 0 0 0-.684.684v23.832zm26.41 0c0 .36.288.684.684.684h14.652a.684.684 0 0 0 .684-.684v-2.952a.684.684 0 0 0-.684-.684h-10.656v-6.3h8.892c.36 0 .684-.288.684-.684v-2.988a.708.708 0 0 0-.684-.684h-8.892V99.12h10.656a.684.684 0 0 0 .684-.684v-2.952a.684.684 0 0 0-.684-.684h-14.652a.684.684 0 0 0-.684.684v23.832zm19.252 0V95.484c0-.36.288-.684.648-.684h8.532c6.948 0 12.636 5.652 12.636 12.564 0 6.984-5.688 12.636-12.636 12.636h-8.532c-.36 0-.648-.324-.648-.684zm4.644-3.708h4.104c4.68 0 8.1-3.312 8.1-8.244 0-4.896-3.42-8.208-8.1-8.208h-4.104v16.452zm20.081-4.86c0 5.472 4.356 9.612 10.008 9.612 5.688 0 10.044-4.14 10.044-9.612V95.484a.708.708 0 0 0-.684-.684h-3.42a.684.684 0 0 0-.684.684v15.048c0 3.024-2.124 5.148-5.256 5.148s-5.22-2.124-5.22-5.184V95.484a.684.684 0 0 0-.684-.684h-3.42a.708.708 0 0 0-.684.684v15.264zm22.961-3.312c0-7.2 5.796-12.996 12.996-12.996 3.636 0 6.264 1.152 8.712 3.348.324.288.324.72.036 1.008l-2.196 2.268c-.252.288-.612.288-.9 0-1.512-1.332-3.528-2.124-5.544-2.124-4.608 0-8.028 3.852-8.028 8.388 0 4.5 3.456 8.316 8.064 8.316 2.16 0 3.996-.828 5.508-2.052.288-.252.684-.216.9 0l2.232 2.304c.288.252.216.72-.036.972-2.448 2.376-5.544 3.492-8.748 3.492-7.2 0-12.996-5.724-12.996-12.924zM381.237 120c-.54 0-.828-.468-.612-.936l11.196-24.228c.108-.216.288-.396.612-.396h.36c.36 0 .504.18.612.396l11.088 24.228c.216.468-.072.936-.612.936h-3.132c-.54 0-.792-.216-1.044-.72l-1.764-3.888h-10.764l-1.764 3.888c-.144.36-.468.72-1.044.72h-3.132zm7.704-8.604h7.236l-3.6-7.92h-.108l-3.528 7.92zm19.685 7.92V99.12h-5.508a.684.684 0 0 1-.684-.684v-2.952c0-.36.288-.684.684-.684h15.732c.396 0 .684.324.684.684v2.952c0 .36-.288.684-.684.684h-5.508v20.196c0 .36-.324.684-.684.684h-3.348a.708.708 0 0 1-.684-.684zm13.42 0c0 .36.324.684.684.684h3.348c.36 0 .684-.324.684-.684V95.484a.708.708 0 0 0-.684-.684h-3.348a.708.708 0 0 0-.684.684v23.832zm7.877-11.88c0-7.2 5.724-12.996 12.924-12.996 7.2 0 12.96 5.796 12.96 12.996s-5.76 12.924-12.96 12.924c-7.2 0-12.924-5.724-12.924-12.924zm4.68 0c0 4.536 3.708 8.244 8.244 8.244s8.28-3.708 8.28-8.244-3.744-8.316-8.28-8.316-8.244 3.78-8.244 8.316zm24.365 11.88c0 .36.324.684.684.684h3.276a.684.684 0 0 0 .684-.684v-15.48h.072l14.76 16.272c.18.18.36.252.612.252h.504c.36 0 .684-.288.684-.648V95.484a.708.708 0 0 0-.684-.684h-3.312a.684.684 0 0 0-.684.684v14.868h-.072l-14.688-15.66a.79.79 0 0 0-.612-.252h-.54c-.36 0-.684.288-.684.648v24.228zm33.07 0V95.484c0-.36.288-.684.684-.684h8.46c4.428 0 8.064 3.6 8.064 7.956 0 4.464-3.636 8.1-8.028 8.1h-4.5v8.46c0 .36-.324.684-.684.684h-3.312a.684.684 0 0 1-.684-.684zm4.68-12.852h4.32c2.016 0 3.564-1.62 3.564-3.744 0-1.98-1.548-3.492-3.564-3.492h-4.32v7.236zm15.04 12.852V95.484c0-.36.288-.684.684-.684h3.312c.36 0 .684.324.684.684v20.196h9.18c.396 0 .684.324.684.684v2.952c0 .36-.288.684-.684.684h-13.176a.684.684 0 0 1-.684-.684zm14.321.684c-.54 0-.828-.468-.612-.936l11.196-24.228c.108-.216.288-.396.612-.396h.36c.36 0 .504.18.612.396l11.088 24.228c.216.468-.072.936-.612.936h-3.132c-.54 0-.792-.216-1.044-.72l-1.764-3.888H532.02l-1.764 3.888c-.144.36-.468.72-1.044.72h-3.132zm7.704-8.604h7.236l-3.6-7.92h-.108l-3.528 7.92zm19.685 7.92V99.12h-5.508a.684.684 0 0 1-.684-.684v-2.952c0-.36.288-.684.684-.684h15.732c.396 0 .684.324.684.684v2.952c0 .36-.288.684-.684.684h-5.508v20.196c0 .36-.324.684-.684.684h-3.348a.708.708 0 0 1-.684-.684zm13.42 0c0 .36.289.684.685.684h3.312c.36 0 .684-.324.684-.684v-9.108h8.892c.36 0 .684-.324.684-.684v-2.952a.708.708 0 0 0-.684-.684h-8.892V99.12h10.656a.684.684 0 0 0 .684-.684v-2.952a.684.684 0 0 0-.684-.684h-14.652a.684.684 0 0 0-.684.684v23.832zm17.094-11.88c0-7.2 5.724-12.996 12.924-12.996 7.2 0 12.96 5.796 12.96 12.996s-5.76 12.924-12.96 12.924c-7.2 0-12.924-5.724-12.924-12.924zm4.68 0c0 4.536 3.708 8.244 8.244 8.244s8.28-3.708 8.28-8.244-3.744-8.316-8.28-8.316-8.244 3.78-8.244 8.316zm24.364 11.88V95.484c0-.36.288-.684.684-.684h10.296c4.32 0 7.848 3.456 7.848 7.74 0 3.312-2.196 6.012-5.328 7.272l4.932 9.144c.252.468 0 1.044-.612 1.044h-3.78c-.324 0-.504-.18-.576-.324l-4.788-9.54h-3.996v9.18c0 .36-.324.684-.684.684h-3.312a.684.684 0 0 1-.684-.684zm4.716-13.032h5.868c1.908 0 3.564-1.656 3.564-3.672 0-1.908-1.656-3.492-3.564-3.492h-5.868v7.164zm16.193 12.888c-.072.504.216.828.684.828h3.24c.324 0 .612-.288.648-.54l2.088-13.644h.108l6.372 14.148c.108.216.288.396.612.396h.648c.324 0 .54-.18.612-.396l6.3-14.148h.108l2.124 13.644c.072.252.36.54.684.54h3.276c.468 0 .756-.324.648-.828L657.84 94.98c-.036-.288-.252-.54-.648-.54h-.576c-.324 0-.504.144-.612.36l-7.92 16.992h-.108l-7.92-16.992a.657.657 0 0 0-.612-.36h-.576c-.396 0-.612.252-.648.54l-4.284 24.192z"/>
    </g>
</svg>
