<?xml version="1.0" encoding="utf-8"?>
<!-- Generator: Adobe Illustrator 21.1.0, SVG Export Plug-In . SVG Version: 6.00 Build 0)  -->
<svg version="1.1" baseProfile="basic" id="Layer_1"
	 xmlns="http://www.w3.org/2000/svg" xmlns:xlink="http://www.w3.org/1999/xlink" x="0px" y="0px" viewBox="0 0 84.7 86"
	 xml:space="preserve">
<g id="lastest_2_">
	<g id="logo-ver.4-pink_2_" transform="translate(-336.000000, -339.000000)">
		<g id="unibook-ver.1_2_" transform="translate(290.000000, 265.000000)">
			<g id="open-book_2_" transform="translate(46.000000, 74.000000)">
				<g id="Group_2_">
					<path id="Combined-Shape_5_" d="M23.2,0C23.2,0,23.2,0,23.2,0c-0.8,0-1.6,0.3-2.1,0.9c-0.6,0.6-0.9,1.3-0.9,2.1v44.7
						c0,1.6,1.4,3,3,3c4.2,0,10,0.5,15.8,2.7c3.9,1.5,7.8,3.8,11.1,7.2V13.8c0-0.6-0.1-1.1-0.4-1.5C43.1,1.6,30.3,0,23.2,0z"/>
					<path id="Combined-Shape_4_" d="M75.2,51.1c2.4-0.3,4.6-0.4,6.5-0.4c1.7,0,3-1.3,3-3V3c0-0.8-0.3-1.6-0.9-2.1
						C83.2,0.3,82.5,0,81.7,0c0,0,0,0,0,0c-7,0-19.9,1.6-26.5,12.2c-0.3,0.4-0.4,1-0.4,1.5v43.3C53.2,68.8,44.8,77.4,32,77.4
						c-14.2,0-22.8-10.8-22.8-24.6V2.3c0-1.2-1-2.3-2.3-2.3H2.3C1.1,0,0,1.1,0,2.3v51.2C0,71.9,13,86,32,86
						c17.5,0,29.9-11.7,31.9-27.8c0-0.4,0.4-1.7,0.4-1.9c0-0.2,0.2-1.4,1.9-2.6c0.7-0.5,1.6-1,2.5-1.3c1.6-0.5,3.1-0.8,4.6-1.1
						C74,51.3,74.7,51.2,75.2,51.1z"/>
				</g>
			</g>
		</g>
	</g>
</g>
</svg>
