<?xml version="1.0" encoding="utf-8"?>
<!-- Generator: Adobe Illustrator 21.1.0, SVG Export Plug-In . SVG Version: 6.00 Build 0)  -->
<svg version="1.1" baseProfile="basic" id="Layer_1"
	 xmlns="http://www.w3.org/2000/svg" xmlns:xlink="http://www.w3.org/1999/xlink" x="0px" y="0px" viewBox="0 0 289 316.3"
	 xml:space="preserve">
<g id="lastest_1_">
	<g id="logo-ver.4-pink_1_" transform="translate(-336.000000, -339.000000)">
		<g id="unibook-ver.1_1_" transform="translate(290.000000, 265.000000)">
			<g id="open-book_1_" transform="translate(46.000000, 74.000000)">
				<g id="Group_1_">
					<path id="Combined-Shape_3_" d="M125.4,58.1C125.4,58.1,125.4,58.1,125.4,58.1c-0.8,0-1.6,0.3-2.1,0.9
						c-0.6,0.6-0.9,1.3-0.9,2.1v44.7c0,1.6,1.4,3,3,3c4.2,0,10,0.5,15.8,2.7c3.9,1.5,7.8,3.8,11.1,7.2V71.9c0-0.6-0.1-1.1-0.4-1.5
						C145.2,59.8,132.4,58.2,125.4,58.1z"/>
					<path id="Combined-Shape_2_" d="M177.3,109.3c2.4-0.3,4.6-0.4,6.5-0.4c1.7,0,3-1.3,3-3V61.1c0-0.8-0.3-1.6-0.9-2.1
						c-0.6-0.6-1.3-0.9-2.1-0.9c0,0,0,0,0,0c-7,0-19.9,1.6-26.5,12.2c-0.3,0.4-0.4,1-0.4,1.5v43.3c-1.5,11.8-9.9,20.3-22.8,20.3
						c-14.2,0-22.8-10.8-22.8-24.6V60.4c0-1.2-1-2.3-2.3-2.3h-4.6c-1.2,0-2.3,1.1-2.3,2.3v51.2c0,18.4,13,32.5,32,32.5
						c17.5,0,29.9-11.7,31.9-27.8c0-0.4,0.4-1.7,0.4-1.9c0-0.2,0.2-1.4,1.9-2.6c0.7-0.5,1.6-1,2.5-1.3c1.6-0.5,3.1-0.8,4.6-1.1
						C176.2,109.5,176.8,109.4,177.3,109.3z"/>
				</g>
			</g>
		</g>
	</g>
</g>
<g>
	<path d="M145.1,219.6c-1.6,9-13.5,27.5-21.6,27.5c-3.9,0-5.9-3.1-5.9-7.8c0-9.2,6.7-21,11.4-30.6c1.4-3.1,7.1-13.5,7.1-16.7
		c0-1.4-0.4-2-1.4-2c-7.3,0-35.1,33.7-35.1,45.9c0,1.4,0.4,2.2,1,2.4c-5.9,0-7.1-2.7-7.1-6.5s2-8.6,3.7-12.4
		c2.4-4.9,22-40.8,22-44.1c0-0.6-0.6-1-1.2-1c-5.3,0-33,30.8-41,43.7c-4.9,8-9.8,14.7-9.8,23.1c0,3.9,1.4,4.7,5.3,4.7
		c0,0.6-1.8,1.6-4.1,1.4c-19.2-2.4,7.3-40.4,9.8-45.3c1-2,11.4-16.7,11.4-19.2c0-0.8-0.6-1.2-1.8-1.2c-18.8,0-49.4,18.4-47.1,31.4
		c0.6,2.2,0.8,5.1,3.9,6.1c-6.7-2.4-10-5.9-10-10.6c0-1.8,0.6-4.3,2-6.9c10.2-19.4,47.5-21.8,49.4-21.8c5.5,0,9.2,1.4,9.2,5.3
		c0,4.7-3.7,9.6-9.6,18.4c21.8-29,30-30.8,33.3-30.8c4.3,0,6.1,2,6.7,4.5c0.6,4.9-11.4,25.5-18,35.9c9.2-14.1,21.4-24.5,26.9-24.5
		c4.3,0,8,3.3,8,6.7c0,5.3-19.6,33.9-19.6,47.3c0,1.4,0.4,2.2,1.2,2.4C131.4,244.3,142.5,225.1,145.1,219.6z"/>
	<path d="M169,219.4c-1,5.9-7.8,14.7-12.2,14.7c-0.8,0-1.4,0-1.6-0.2c-3.9,3.1-6.1,4.3-10,4.3c-16.7,0-1.4-31.2,11.2-30.4
		c3.9,0.2,7.8,2,7.8,8c0,3.9-1.8,12-7.3,16.7C160,232.4,166.7,224.3,169,219.4z M159.2,225.9c1.6,0,4.9-13.9-1.2-13.9
		c-5.7,0-15.1,12.6-14.1,20.8c0.6,4.9,6.5,3.1,9.4,0.2c-0.6-0.6-0.8-1.6-0.8-2.7C152.5,227.1,155.7,223.7,159.2,225.9z"/>
	<path d="M183.7,209c0.6-0.6,1-0.4,1.6-0.6c3.9-0.8,5.9,1.4,6.5,4.5c1,9.4-9.2,25.7-20.2,24.7c-2.9,0-9.6-1.6-7.3-10.4
		c1.6-6.5,12.2-27.5,23.1-37.9c3.3-3.3,6.1-3.3,7.5-2.2C198.2,188.6,193.5,199.2,183.7,209z M171.8,222.4l-0.2,0.2
		c-1.6,3.7-8,12.9-1.8,12.9c1.8,0,5.1-1.4,7.5-3.7c7.3-6.7,12.2-20.6,7.5-21.6C181.8,209.6,176.7,215.9,171.8,222.4z M192.2,194.5
		c1-1.8,1-2.7-0.4-1.6c-5.1,6.3-11.2,14.3-15.9,21.8c2.2-2.2,4.5-4.5,5.5-5.9C187.1,202.9,189.6,199.4,192.2,194.5z"/>
	<path d="M206.5,211.6c-3.9,5.9-7.8,12-9.6,17.1c-3.3,8.2,1.4,9.2,5.3,4.7c3.9-3.9,9.4-12.4,12-16.7c-2.2,6.3-6.7,14.5-11.4,18.6
		c-3.9,3.1-8,2.7-10.2,0.4c-1.4-1.6-1.8-4.3-1-8.2c1-3.9,2.7-7.3,4.1-10.4c0.8-1.6,1.6-3.3,2.7-4.9C201,208.6,208.1,209,206.5,211.6
		z M212.6,201.6c2.2-6.7-6.3,2.4-8,3.5c-2,1-2-6.3,1.2-8.4C210.4,194.5,216.3,199,212.6,201.6z"/>
	<path d="M238.5,188.8c1.2,5.1-7.5,19.6-21,28.8c0-0.2,2-2.4,3.7-4.1c6.5-6.5,13.7-15.7,13.7-18.8c0-0.4,0-0.6-0.2-0.6
		c-4.9,0-22.6,29.4-22.6,39.2c0,1.4,0.4,2.2,1.4,2.2c4.9,0,13.3-13.1,15.9-19c-1.6,8-10.4,21-17.3,21c-3.1,0-5.7-1.2-5.5-5.3
		c0.6-10.2,11.8-32.2,21.6-41.4C233,186.1,237.7,184.9,238.5,188.8z"/>
	<path d="M221.2,230.8c0-10.4,11.2-22,21-22.6c2.7-0.2,5.3,1,5.3,4.1c0,1.8-0.8,3.7-2.4,5.5c-1,1.4-7.1,7.5-17.3,9.2
		c-1,1.8-1.2,3.1-1.2,4.5c0,2.2,1.4,3.7,4.1,3.9c8,0.6,18.4-12.2,20.6-18.4c-1,9.8-13.1,20.8-23.5,20.8
		C222.6,237.7,221.2,234.7,221.2,230.8z M228.8,225.7c11.2-3.9,16.5-9.8,16.5-13.3c0-0.6-0.2-1-0.6-1c-3.3,0-9,5.3-14.1,11.6
		C230,223.7,229.8,224.1,228.8,225.7z"/>
</g>
</svg>
