<svg xmlns="http://www.w3.org/2000/svg" width="512" height="512" viewBox="0 -29 512.001 512">
    <path fill="#FFF" d="M256 155.285c-28.54 0-51.762 23.219-51.762 51.762 0 28.539 23.223 51.758 51.762 51.758s51.762-23.22 51.762-51.758c0-28.543-23.223-51.762-51.762-51.762zm0 88.52c-20.27 0-36.762-16.489-36.762-36.758S235.73 170.285 256 170.285s36.762 16.492 36.762 36.762S276.27 243.805 256 243.805zm239.43 15c9.136 0 16.57-7.434 16.57-16.57v-4.25c0-15.044-12.234-27.278-27.277-27.278h-24.278a7.497 7.497 0 0 0-7.5 7.5 7.5 7.5 0 0 0 7.5 7.5h24.278c6.77 0 12.277 5.508 12.277 12.277v4.25a1.57 1.57 0 0 1-1.57 1.57H352.8v-18.097h72.88a7.5 7.5 0 0 0 7.5-7.5c0-4.144-3.356-7.5-7.5-7.5H352.8v-47.344c1.833.598 3.716.91 5.595.91 2.64 0 5.273-.59 7.726-1.765a17.836 17.836 0 0 0 9.188-10.219l6.214-17.59c3.297-9.336-1.613-19.613-10.949-22.91l-88.62-31.297c-5.985-2.117-12.188-3.457-18.454-4.062V59.293h47.824c7.961 0 14.438-6.477 14.438-14.438V21.504c0-7.957-6.477-14.434-14.438-14.434H263.48C263.254 3.13 259.996 0 256 0c-4.14 0-7.5 3.36-7.5 7.5v68.93a77.927 77.927 0 0 0-18.45 4.062l-88.62 31.297c-9.336 3.297-14.246 13.574-10.953 22.91l6.214 17.59a17.836 17.836 0 0 0 9.188 10.219c4.2 2.008 8.914 2.297 13.324.847v47.348H27.277C12.238 210.707 0 222.941 0 237.984v4.25c0 9.137 7.434 16.57 16.574 16.57h11.489v148.407h-4.954C10.367 407.21 0 417.578 0 430.32v8.46c0 8.852 7.203 16.059 16.059 16.059h34.539a7.5 7.5 0 0 0 7.5-7.5c0-4.145-3.356-7.5-7.5-7.5h-34.54A1.062 1.062 0 0 1 15 438.78v-8.46c0-4.473 3.637-8.11 8.11-8.11h465.78c4.473 0 8.11 3.637 8.11 8.11v8.46c0 .582-.477 1.059-1.059 1.059H86.277a7.5 7.5 0 1 0 0 15h409.664c8.856 0 16.059-7.207 16.059-16.059v-8.46c0-12.743-10.363-23.11-23.105-23.11h-4.954V258.805zM263.5 22.07h47.262v22.223H263.5zM154.602 149.094a2.95 2.95 0 0 1-2.258-.117c-.41-.2-1.156-.68-1.508-1.684l-6.215-17.59a2.958 2.958 0 0 1 1.8-3.77l88.626-31.3a62.942 62.942 0 0 1 20.937-3.578h.032a62.981 62.981 0 0 1 20.941 3.578l88.621 31.3a2.955 2.955 0 0 1 1.8 3.77l-6.214 17.59a2.954 2.954 0 0 1-3.766 1.8l-88.625-31.296a38.469 38.469 0 0 0-25.546 0zm-138.028 94.71a1.574 1.574 0 0 1-1.574-1.57v-4.25c0-6.77 5.508-12.277 12.277-12.277H159.2v18.098zm26.488 69.86h111.731a4.412 4.412 0 0 1 4.406 4.41v26.676a4.411 4.411 0 0 1-4.406 4.406H43.063zM248.5 407.211h-33.926v-65a8.812 8.812 0 0 1 5.574-8.223 96.805 96.805 0 0 1 28.352-6.601zm48.926 0H263.5v-79.824a96.776 96.776 0 0 1 28.352 6.601 8.806 8.806 0 0 1 5.574 8.223zm171.512-58.055H357.207a4.412 4.412 0 0 1-4.406-4.41V318.07a4.411 4.411 0 0 1 4.406-4.406h111.73zm0-50.492H357.207c-10.703 0-19.406 8.707-19.406 19.41v26.676c0 10.7 8.703 19.406 19.406 19.406h111.73v43.059H312.427V342.21c0-9.82-5.895-18.516-15.016-22.156-26.703-10.653-56.113-10.657-82.82 0-9.121 3.64-15.016 12.336-15.016 22.156v65.004H43.063v-43.059h111.73c10.703 0 19.406-8.707 19.406-19.406v-26.676c0-10.703-8.703-19.41-19.406-19.41H43.063v-39.86h123.636c4.145 0 7.5-3.355 7.5-7.5v-93.222l74.024-26.14a23.415 23.415 0 0 1 15.558 0l74.02 26.14v93.223c0 4.144 3.355 7.5 7.5 7.5h123.64v39.86zm-197.352-99.117H263.5V184.37c0-4.144-3.355-7.5-7.5-7.5a7.5 7.5 0 0 0-7.5 7.5v22.676c0 4.14 3.36 7.5 7.5 7.5h15.586a7.5 7.5 0 0 0 7.5-7.5c0-4.145-3.356-7.5-7.5-7.5zm18.379 78.406h-67.93a7.497 7.497 0 0 0-7.5 7.5 7.5 7.5 0 0 0 7.5 7.5h67.93a7.5 7.5 0 0 0 7.5-7.5c0-4.144-3.356-7.5-7.5-7.5zm-58.426 91.527c4.14 0 7.5-3.359 7.5-7.5v-9.91a7.5 7.5 0 1 0-15 0v9.91c0 4.145 3.356 7.5 7.5 7.5zm48.922-24.91c-4.14 0-7.5 3.36-7.5 7.5v9.91a7.5 7.5 0 1 0 15 0v-9.91a7.5 7.5 0 0 0-7.5-7.5zm0 0"/>
</svg>
