<svg xmlns="http://www.w3.org/2000/svg" width="512" height="512" viewBox="0 0 512 512">
    <g fill="#FFF">
        <path d="M187.733 315.733a8.536 8.536 0 0 0 8.533 8.533H230.4a8.536 8.536 0 0 0 8.533-8.533v-51.2A8.536 8.536 0 0 0 230.4 256h-34.133a8.536 8.536 0 0 0-8.533 8.533v51.2zm17.067-42.666h17.067V307.2H204.8v-34.133zM196.267 221.867H230.4a8.536 8.536 0 0 0 8.533-8.533v-51.2a8.536 8.536 0 0 0-8.533-8.533h-34.133a8.536 8.536 0 0 0-8.533 8.533v51.2c-.001 4.71 3.822 8.533 8.533 8.533zm8.533-51.2h17.067V204.8H204.8v-34.133z"/>
        <path d="M132.395 160.913L256 86.75l123.605 74.163a8.48 8.48 0 0 0 4.386 1.22 8.519 8.519 0 0 0 7.322-4.139 8.528 8.528 0 0 0-2.918-11.708L264.533 71.97V17.067H307.2v17.067h-25.6a8.536 8.536 0 0 0-8.533 8.533A8.536 8.536 0 0 0 281.6 51.2h34.133a8.536 8.536 0 0 0 8.533-8.533V8.533A8.536 8.536 0 0 0 315.733 0H256a8.536 8.536 0 0 0-8.533 8.533V71.97l-123.861 74.317a8.528 8.528 0 0 0-2.918 11.708c2.414 4.036 7.67 5.35 11.707 2.918zM93.867 324.267a8.536 8.536 0 0 0 8.533-8.533v-51.2a8.536 8.536 0 0 0-8.533-8.533H59.733a8.536 8.536 0 0 0-8.533 8.533V281.6c0 4.71 3.823 8.533 8.533 8.533s8.533-3.823 8.533-8.533v-8.533h17.067v42.667c0 4.71 3.823 8.533 8.534 8.533zM153.6 435.2V187.733a8.536 8.536 0 0 0-8.533-8.533 8.536 8.536 0 0 0-8.533 8.533V435.2a8.536 8.536 0 0 0 8.533 8.533 8.536 8.536 0 0 0 8.533-8.533z"/>
        <path d="M110.933 477.867h290.133c4.71 0 8.533-3.823 8.533-8.533s-3.823-8.533-8.533-8.533h-76.8v-85.333h8.533c4.71 0 8.533-3.823 8.533-8.533s-3.823-8.533-8.533-8.533H179.2c-4.71 0-8.533 3.823-8.533 8.533s3.823 8.533 8.533 8.533h8.533V460.8h-76.8c-4.71 0-8.533 3.823-8.533 8.533s3.823 8.534 8.533 8.534zm153.6-51.2c4.71 0 8.533-3.823 8.533-8.533s-3.823-8.533-8.533-8.533v-34.133H307.2V460.8h-42.667v-34.133zm-59.733-51.2h42.667V409.6c-4.71 0-8.533 3.823-8.533 8.533s3.823 8.533 8.533 8.533V460.8H204.8v-85.333zM452.267 366.933h-34.133a8.536 8.536 0 0 0-8.533 8.533v51.2a8.536 8.536 0 0 0 8.533 8.533h34.133a8.536 8.536 0 0 0 8.533-8.533v-51.2a8.536 8.536 0 0 0-8.533-8.533zm-8.534 51.2h-17.067V384h17.067v34.133zM452.267 264.533h-34.133a8.536 8.536 0 0 0-8.533 8.533v51.2a8.536 8.536 0 0 0 8.533 8.533h34.133a8.536 8.536 0 0 0 8.533-8.533v-51.2a8.536 8.536 0 0 0-8.533-8.533zm-8.534 51.2h-17.067V281.6h17.067v34.133zM435.2 494.933H76.8c-4.71 0-8.533 3.823-8.533 8.533S72.09 512 76.8 512h358.4c4.71 0 8.533-3.823 8.533-8.533s-3.823-8.534-8.533-8.534z"/>
        <path d="M503.467 187.733a8.536 8.536 0 0 0-8.533 8.533v8.533h-93.867a8.536 8.536 0 0 0-8.533 8.533 8.536 8.536 0 0 0 8.533 8.533h93.867v281.6c0 4.71 3.823 8.533 8.533 8.533s8.533-3.823 8.533-8.533v-307.2c0-4.709-3.823-8.532-8.533-8.532zM273.067 315.733a8.536 8.536 0 0 0 8.533 8.533h34.133a8.536 8.536 0 0 0 8.533-8.533v-51.2a8.536 8.536 0 0 0-8.533-8.533H281.6a8.536 8.536 0 0 0-8.533 8.533v51.2zm17.066-42.666H307.2V307.2h-17.067v-34.133zM85.333 418.133c0-1.109-.486-110.933-42.667-110.933C.486 307.2 0 417.024 0 418.133c0 20.608 14.686 37.837 34.133 41.805v43.529A8.536 8.536 0 0 0 42.666 512a8.536 8.536 0 0 0 8.533-8.533v-43.529c19.448-3.968 34.134-21.197 34.134-41.805zm-42.666 25.6c-14.114 0-25.6-11.486-25.6-25.6 0-42.513 11.418-93.867 25.6-93.867 14.182 0 25.6 51.354 25.6 93.867 0 14.114-11.486 25.6-25.6 25.6zM375.467 435.2v-256c0-4.71-3.823-8.533-8.533-8.533s-8.533 3.823-8.533 8.533v256c0 4.71 3.823 8.533 8.533 8.533s8.533-3.823 8.533-8.533zM281.6 221.867h34.133a8.536 8.536 0 0 0 8.533-8.533v-51.2a8.536 8.536 0 0 0-8.533-8.533H281.6a8.536 8.536 0 0 0-8.533 8.533v51.2a8.536 8.536 0 0 0 8.533 8.533zm8.533-51.2H307.2V204.8h-17.067v-34.133zM8.533 298.667a8.536 8.536 0 0 0 8.533-8.533v-68.267h93.867a8.536 8.536 0 0 0 8.533-8.533 8.536 8.536 0 0 0-8.533-8.533H17.067v-8.533c0-4.71-3.823-8.533-8.533-8.533S0 191.556 0 196.267v93.867a8.536 8.536 0 0 0 8.533 8.533z"/>
    </g>
</svg>
