<svg xmlns="http://www.w3.org/2000/svg" width="512" height="512" viewBox="0 0 480 480">
    <path fill="#FFF" d="M472 432h-16v-24a8 8 0 0 0-8-8h-8V224h8a8 8 0 0 0 8-8v-32a8 8 0 0 0-8-8h-8v-24a8 8 0 0 0-8-8h-14.4L248 74.624V48h56a8 8 0 0 0 8-8V8a8 8 0 0 0-8-8h-64a8 8 0 0 0-8 8v66.624L62.4 144H48a8 8 0 0 0-8 8v24h-8a8 8 0 0 0-8 8v32a8 8 0 0 0 8 8h8v176h-8a8 8 0 0 0-8 8v24H8a8 8 0 0 0-8 8v32a8 8 0 0 0 8 8h464a8 8 0 0 0 8-8v-32a8 8 0 0 0-8-8zM248 16h48v16h-48V16zm-8 72.64L375.312 144H104.688L240 88.64zM56 160h368v16H56v-16zm-16 32h400v16H40v-16zm384 32v176h-96V224h96zm-184 88c-30.911.04-55.96 25.089-56 56v32h-16V224h144v176h-16v-32c-.04-30.911-25.089-55.96-56-56zm40 56v32h-80v-32c0-22.091 17.909-40 40-40s40 17.909 40 40zM152 224v176H56V224h96zM40 416h400v16H40v-16zm424 48H16v-16h448v16z"/>
    <path fill="#FFF" d="M92.97 97.675L196.997 55.11l6.059 14.808L99.03 112.483zM60.973 110.777l15.113-6.182 6.057 14.81-15.113 6.182zM248 368h16v16h-16zM216 368h16v16h-16zM80 248h16v16H80zM112 248h16v16h-16zM80 280h16v16H80zM112 280h16v16h-16zM200 248h16v16h-16zM232 248h16v16h-16zM264 248h16v16h-16zM200 280h16v16h-16zM232 280h16v16h-16zM264 280h16v16h-16zM80 328h16v16H80zM112 328h16v16h-16zM80 360h16v16H80zM112 360h16v16h-16zM384 248h16v16h-16zM352 248h16v16h-16zM384 280h16v16h-16zM352 280h16v16h-16zM384 328h16v16h-16zM352 328h16v16h-16zM384 360h16v16h-16zM352 360h16v16h-16zM456 264h16v72h-16zM456 352h16v16h-16z"/>
</svg>
