<svg xmlns="http://www.w3.org/2000/svg" viewBox="0 0 291.764 291.764">
    <path fill="#2394bc" d="M119.259 100.23l-14.643 91.122h23.405l14.634-91.122h-23.396zm70.598 37.118c-8.179-4.039-13.193-6.765-13.193-10.896.1-3.756 4.24-7.604 13.485-7.604 7.604-.191 13.193 1.596 17.433 3.374l2.124.948 3.182-19.065c-4.623-1.787-11.953-3.756-21.007-3.756-23.113 0-39.388 12.017-39.489 29.204-.191 12.683 11.652 19.721 20.515 23.943 9.054 4.331 12.136 7.139 12.136 10.987-.1 5.908-7.321 8.634-14.059 8.634-9.336 0-14.351-1.404-21.964-4.696l-3.082-1.404-3.273 19.813c5.498 2.444 15.609 4.595 26.104 4.705 24.563 0 40.546-11.835 40.747-30.152.08-10.048-6.165-17.744-19.659-24.035zm83.034-36.836h-18.108c-5.58 0-9.82 1.605-12.236 7.331l-34.766 83.509h24.563l6.765-18.08h27.481l3.51 18.153h21.664l-18.873-90.913zm-26.97 54.514c.474.046 9.428-29.514 9.428-29.514l7.13 29.514h-16.558zM85.059 100.23l-22.931 61.909-2.498-12.209c-4.24-14.087-17.533-29.395-32.368-36.999l20.998 78.33h24.764l36.799-91.021H85.059v-.01z"/>
    <path fill="#efc75e" d="M51.916 111.982c-1.787-6.948-7.486-11.634-15.226-11.734H.374L0 101.934c28.329 6.984 52.107 28.474 59.821 48.688l-7.905-38.64z"/>
</svg>
